<?xml version="1.0" encoding="UTF-8" standalone="no"?>
<!DOCTYPE svg PUBLIC "-//W3C//DTD SVG 1.1//EN"
 "http://www.w3.org/Graphics/SVG/1.1/DTD/svg11.dtd">
<!-- Generated by graphviz version 12.2.0 (20241103.1931)
 -->
<!-- Title: Tree Pages: 1 -->
<svg width="720pt" height="434pt"
 viewBox="0.00 0.00 720.00 433.61" xmlns="http://www.w3.org/2000/svg" xmlns:xlink="http://www.w3.org/1999/xlink">
<g id="graph0" class="graph" transform="scale(0.503233 0.503233) rotate(0) translate(4 857.65)">
<title>Tree</title>
<polygon fill="white" stroke="none" points="-4,4 -4,-857.65 1426.75,-857.65 1426.75,4 -4,4"/>
<!-- 0 -->
<g id="node1" class="node">
<title>0</title>
<path fill="#ea9a60" stroke="black" d="M541.62,-845C541.62,-845 395.12,-845 395.12,-845 389.12,-845 383.12,-839 383.12,-833 383.12,-833 383.12,-789 383.12,-789 383.12,-783 389.12,-777 395.12,-777 395.12,-777 541.62,-777 541.62,-777 547.62,-777 553.62,-783 553.62,-789 553.62,-789 553.62,-833 553.62,-833 553.62,-839 547.62,-845 541.62,-845"/>
<text text-anchor="start" x="391.12" y="-827.7" font-family="Helvetica,sans-Serif" font-size="14.00">Annual Income ≤ 46402.0</text>
<text text-anchor="start" x="408.75" y="-812.7" font-family="Helvetica,sans-Serif" font-size="14.00">squared_error = 1.2</text>
<text text-anchor="start" x="412.5" y="-797.7" font-family="Helvetica,sans-Serif" font-size="14.00">samples = 960000</text>
<text text-anchor="start" x="431.25" y="-782.7" font-family="Helvetica,sans-Serif" font-size="14.00">value = 6.59</text>
</g>
<!-- 1 -->
<g id="node2" class="node">
<title>1</title>
<path fill="#e99458" stroke="black" d="M376.88,-716C376.88,-716 237.88,-716 237.88,-716 231.88,-716 225.88,-710 225.88,-704 225.88,-704 225.88,-660 225.88,-660 225.88,-654 231.88,-648 237.88,-648 237.88,-648 376.88,-648 376.88,-648 382.88,-648 388.88,-654 388.88,-660 388.88,-660 388.88,-704 388.88,-704 388.88,-710 382.88,-716 376.88,-716"/>
<text text-anchor="start" x="233.88" y="-698.7" font-family="Helvetica,sans-Serif" font-size="14.00">Annual Income_na ≤ 1.5</text>
<text text-anchor="start" x="244" y="-683.7" font-family="Helvetica,sans-Serif" font-size="14.00">squared_error = 1.04</text>
<text text-anchor="start" x="251.5" y="-668.7" font-family="Helvetica,sans-Serif" font-size="14.00">samples = 754225</text>
<text text-anchor="start" x="270.25" y="-653.7" font-family="Helvetica,sans-Serif" font-size="14.00">value = 6.66</text>
</g>
<!-- 0&#45;&gt;1 -->
<g id="edge1" class="edge">
<title>0&#45;&gt;1</title>
<path fill="none" stroke="black" d="M426.07,-776.63C405.36,-760.29 380.25,-740.48 358.47,-723.3"/>
<polygon fill="black" stroke="black" points="360.88,-720.75 350.86,-717.3 356.54,-726.24 360.88,-720.75"/>
<text text-anchor="middle" x="352.6" y="-735.39" font-family="Helvetica,sans-Serif" font-size="14.00">True</text>
</g>
<!-- 2 -->
<g id="node7" class="node">
<title>2</title>
<path fill="#eeaf81" stroke="black" d="M613.75,-716C613.75,-716 495,-716 495,-716 489,-716 483,-710 483,-704 483,-704 483,-660 483,-660 483,-654 489,-648 495,-648 495,-648 613.75,-648 613.75,-648 619.75,-648 625.75,-654 625.75,-660 625.75,-660 625.75,-704 625.75,-704 625.75,-710 619.75,-716 613.75,-716"/>
<text text-anchor="start" x="492.5" y="-698.7" font-family="Helvetica,sans-Serif" font-size="14.00">Credit Score ≤ 511.5</text>
<text text-anchor="start" x="491" y="-683.7" font-family="Helvetica,sans-Serif" font-size="14.00">squared_error = 1.74</text>
<text text-anchor="start" x="498.5" y="-668.7" font-family="Helvetica,sans-Serif" font-size="14.00">samples = 205775</text>
<text text-anchor="start" x="517.25" y="-653.7" font-family="Helvetica,sans-Serif" font-size="14.00">value = 6.37</text>
</g>
<!-- 0&#45;&gt;2 -->
<g id="edge6" class="edge">
<title>0&#45;&gt;2</title>
<path fill="none" stroke="black" d="M490.97,-776.63C501.54,-761.03 514.24,-742.26 525.5,-725.64"/>
<polygon fill="black" stroke="black" points="528.37,-727.64 531.08,-717.4 522.58,-723.72 528.37,-727.64"/>
<text text-anchor="middle" x="536.66" y="-734.89" font-family="Helvetica,sans-Serif" font-size="14.00">False</text>
</g>
<!-- 7 -->
<g id="node3" class="node">
<title>7</title>
<path fill="#e99254" stroke="black" d="M130.75,-59.5C130.75,-59.5 12,-59.5 12,-59.5 6,-59.5 0,-53.5 0,-47.5 0,-47.5 0,-18.5 0,-18.5 0,-12.5 6,-6.5 12,-6.5 12,-6.5 130.75,-6.5 130.75,-6.5 136.75,-6.5 142.75,-12.5 142.75,-18.5 142.75,-18.5 142.75,-47.5 142.75,-47.5 142.75,-53.5 136.75,-59.5 130.75,-59.5"/>
<text text-anchor="start" x="8" y="-42.2" font-family="Helvetica,sans-Serif" font-size="14.00">squared_error = 0.99</text>
<text text-anchor="start" x="15.5" y="-27.2" font-family="Helvetica,sans-Serif" font-size="14.00">samples = 718198</text>
<text text-anchor="start" x="34.25" y="-12.2" font-family="Helvetica,sans-Serif" font-size="14.00">value = 6.68</text>
</g>
<!-- 1&#45;&gt;7 -->
<g id="edge2" class="edge">
<title>1&#45;&gt;7</title>
<path fill="none" stroke="black" d="M276.76,-647.54C212.91,-577.73 71.38,-423 71.38,-423 71.38,-423 71.38,-423 71.38,-291 71.38,-291 71.38,-141.68 71.38,-70.67"/>
<polygon fill="black" stroke="black" points="74.88,-71.1 71.38,-61.1 67.88,-71.1 74.88,-71.1"/>
</g>
<!-- 8 -->
<g id="node4" class="node">
<title>8</title>
<path fill="#f2bf9b" stroke="black" d="M366.75,-586C366.75,-586 248,-586 248,-586 242,-586 236,-580 236,-574 236,-574 236,-530 236,-530 236,-524 242,-518 248,-518 248,-518 366.75,-518 366.75,-518 372.75,-518 378.75,-524 378.75,-530 378.75,-530 378.75,-574 378.75,-574 378.75,-580 372.75,-586 366.75,-586"/>
<text text-anchor="start" x="245.5" y="-568.7" font-family="Helvetica,sans-Serif" font-size="14.00">Credit Score ≤ 460.5</text>
<text text-anchor="start" x="244" y="-553.7" font-family="Helvetica,sans-Serif" font-size="14.00">squared_error = 1.66</text>
<text text-anchor="start" x="255.25" y="-538.7" font-family="Helvetica,sans-Serif" font-size="14.00">samples = 36027</text>
<text text-anchor="start" x="270.25" y="-523.7" font-family="Helvetica,sans-Serif" font-size="14.00">value = 6.18</text>
</g>
<!-- 1&#45;&gt;8 -->
<g id="edge3" class="edge">
<title>1&#45;&gt;8</title>
<path fill="none" stroke="black" d="M307.38,-647.7C307.38,-632.3 307.38,-613.78 307.38,-597.22"/>
<polygon fill="black" stroke="black" points="310.88,-597.64 307.38,-587.64 303.88,-597.64 310.88,-597.64"/>
</g>
<!-- 13 -->
<g id="node5" class="node">
<title>13</title>
<path fill="#e99559" stroke="black" d="M291.75,-59.5C291.75,-59.5 173,-59.5 173,-59.5 167,-59.5 161,-53.5 161,-47.5 161,-47.5 161,-18.5 161,-18.5 161,-12.5 167,-6.5 173,-6.5 173,-6.5 291.75,-6.5 291.75,-6.5 297.75,-6.5 303.75,-12.5 303.75,-18.5 303.75,-18.5 303.75,-47.5 303.75,-47.5 303.75,-53.5 297.75,-59.5 291.75,-59.5"/>
<text text-anchor="start" x="169" y="-42.2" font-family="Helvetica,sans-Serif" font-size="14.00">squared_error = 1.03</text>
<text text-anchor="start" x="180.25" y="-27.2" font-family="Helvetica,sans-Serif" font-size="14.00">samples = 16564</text>
<text text-anchor="start" x="195.25" y="-12.2" font-family="Helvetica,sans-Serif" font-size="14.00">value = 6.65</text>
</g>
<!-- 8&#45;&gt;13 -->
<g id="edge4" class="edge">
<title>8&#45;&gt;13</title>
<path fill="none" stroke="black" d="M302.57,-517.87C289.22,-425.88 251.77,-167.71 237.76,-71.1"/>
<polygon fill="black" stroke="black" points="241.25,-70.78 236.35,-61.38 234.32,-71.78 241.25,-70.78"/>
</g>
<!-- 14 -->
<g id="node6" class="node">
<title>14</title>
<path fill="#f9e3d3" stroke="black" d="M452.75,-59.5C452.75,-59.5 334,-59.5 334,-59.5 328,-59.5 322,-53.5 322,-47.5 322,-47.5 322,-18.5 322,-18.5 322,-12.5 328,-6.5 334,-6.5 334,-6.5 452.75,-6.5 452.75,-6.5 458.75,-6.5 464.75,-12.5 464.75,-18.5 464.75,-18.5 464.75,-47.5 464.75,-47.5 464.75,-53.5 458.75,-59.5 452.75,-59.5"/>
<text text-anchor="start" x="330" y="-42.2" font-family="Helvetica,sans-Serif" font-size="14.00">squared_error = 1.86</text>
<text text-anchor="start" x="341.25" y="-27.2" font-family="Helvetica,sans-Serif" font-size="14.00">samples = 19463</text>
<text text-anchor="start" x="356.25" y="-12.2" font-family="Helvetica,sans-Serif" font-size="14.00">value = 5.79</text>
</g>
<!-- 8&#45;&gt;14 -->
<g id="edge5" class="edge">
<title>8&#45;&gt;14</title>
<path fill="none" stroke="black" d="M312.89,-517.87C328.19,-425.88 371.13,-167.71 387.2,-71.1"/>
<polygon fill="black" stroke="black" points="390.63,-71.82 388.82,-61.38 383.73,-70.67 390.63,-71.82"/>
</g>
<!-- 3 -->
<g id="node8" class="node">
<title>3</title>
<path fill="#e9965b" stroke="black" d="M613.75,-59.5C613.75,-59.5 495,-59.5 495,-59.5 489,-59.5 483,-53.5 483,-47.5 483,-47.5 483,-18.5 483,-18.5 483,-12.5 489,-6.5 495,-6.5 495,-6.5 613.75,-6.5 613.75,-6.5 619.75,-6.5 625.75,-12.5 625.75,-18.5 625.75,-18.5 625.75,-47.5 625.75,-47.5 625.75,-53.5 619.75,-59.5 613.75,-59.5"/>
<text text-anchor="start" x="491" y="-42.2" font-family="Helvetica,sans-Serif" font-size="14.00">squared_error = 1.24</text>
<text text-anchor="start" x="498.5" y="-27.2" font-family="Helvetica,sans-Serif" font-size="14.00">samples = 108762</text>
<text text-anchor="start" x="517.25" y="-12.2" font-family="Helvetica,sans-Serif" font-size="14.00">value = 6.64</text>
</g>
<!-- 2&#45;&gt;3 -->
<g id="edge7" class="edge">
<title>2&#45;&gt;3</title>
<path fill="none" stroke="black" d="M554.38,-647.54C554.38,-577.73 554.38,-423 554.38,-423 554.38,-423 554.38,-423 554.38,-291 554.38,-291 554.38,-141.68 554.38,-70.67"/>
<polygon fill="black" stroke="black" points="557.88,-71.1 554.38,-61.1 550.88,-71.1 557.88,-71.1"/>
</g>
<!-- 4 -->
<g id="node9" class="node">
<title>4</title>
<path fill="#f4caac" stroke="black" d="M1171.38,-586C1171.38,-586 1047.38,-586 1047.38,-586 1041.38,-586 1035.38,-580 1035.38,-574 1035.38,-574 1035.38,-530 1035.38,-530 1035.38,-524 1041.38,-518 1047.38,-518 1047.38,-518 1171.38,-518 1171.38,-518 1177.38,-518 1183.38,-524 1183.38,-530 1183.38,-530 1183.38,-574 1183.38,-574 1183.38,-580 1177.38,-586 1171.38,-586"/>
<text text-anchor="start" x="1043.38" y="-568.7" font-family="Helvetica,sans-Serif" font-size="14.00">Previous Claims ≤ 1.5</text>
<text text-anchor="start" x="1046" y="-553.7" font-family="Helvetica,sans-Serif" font-size="14.00">squared_error = 2.12</text>
<text text-anchor="start" x="1057.25" y="-538.7" font-family="Helvetica,sans-Serif" font-size="14.00">samples = 97013</text>
<text text-anchor="start" x="1072.25" y="-523.7" font-family="Helvetica,sans-Serif" font-size="14.00">value = 6.06</text>
</g>
<!-- 2&#45;&gt;4 -->
<g id="edge8" class="edge">
<title>2&#45;&gt;4</title>
<path fill="none" stroke="black" d="M626.08,-664.46C728.21,-640.91 915.25,-597.77 1024.27,-572.63"/>
<polygon fill="black" stroke="black" points="1024.79,-576.1 1033.74,-570.44 1023.21,-569.28 1024.79,-576.1"/>
</g>
<!-- 5 -->
<g id="node10" class="node">
<title>5</title>
<path fill="#f8decc" stroke="black" d="M1172.5,-456C1172.5,-456 1046.25,-456 1046.25,-456 1040.25,-456 1034.25,-450 1034.25,-444 1034.25,-444 1034.25,-400 1034.25,-400 1034.25,-394 1040.25,-388 1046.25,-388 1046.25,-388 1172.5,-388 1172.5,-388 1178.5,-388 1184.5,-394 1184.5,-400 1184.5,-400 1184.5,-444 1184.5,-444 1184.5,-450 1178.5,-456 1172.5,-456"/>
<text text-anchor="start" x="1042.25" y="-438.7" font-family="Helvetica,sans-Serif" font-size="14.00">Health Score_na ≤ 1.5</text>
<text text-anchor="start" x="1046" y="-423.7" font-family="Helvetica,sans-Serif" font-size="14.00">squared_error = 1.82</text>
<text text-anchor="start" x="1057.25" y="-408.7" font-family="Helvetica,sans-Serif" font-size="14.00">samples = 65176</text>
<text text-anchor="start" x="1072.25" y="-393.7" font-family="Helvetica,sans-Serif" font-size="14.00">value = 5.84</text>
</g>
<!-- 4&#45;&gt;5 -->
<g id="edge9" class="edge">
<title>4&#45;&gt;5</title>
<path fill="none" stroke="black" d="M1109.38,-517.7C1109.38,-502.3 1109.38,-483.78 1109.38,-467.22"/>
<polygon fill="black" stroke="black" points="1112.88,-467.64 1109.38,-457.64 1105.88,-467.64 1112.88,-467.64"/>
</g>
<!-- 6 -->
<g id="node17" class="node">
<title>6</title>
<path fill="#eca16b" stroke="black" d="M1410.75,-59.5C1410.75,-59.5 1292,-59.5 1292,-59.5 1286,-59.5 1280,-53.5 1280,-47.5 1280,-47.5 1280,-18.5 1280,-18.5 1280,-12.5 1286,-6.5 1292,-6.5 1292,-6.5 1410.75,-6.5 1410.75,-6.5 1416.75,-6.5 1422.75,-12.5 1422.75,-18.5 1422.75,-18.5 1422.75,-47.5 1422.75,-47.5 1422.75,-53.5 1416.75,-59.5 1410.75,-59.5"/>
<text text-anchor="start" x="1288" y="-42.2" font-family="Helvetica,sans-Serif" font-size="14.00">squared_error = 2.43</text>
<text text-anchor="start" x="1299.25" y="-27.2" font-family="Helvetica,sans-Serif" font-size="14.00">samples = 31837</text>
<text text-anchor="start" x="1314.25" y="-12.2" font-family="Helvetica,sans-Serif" font-size="14.00">value = 6.52</text>
</g>
<!-- 4&#45;&gt;6 -->
<g id="edge16" class="edge">
<title>4&#45;&gt;6</title>
<path fill="none" stroke="black" d="M1138.99,-517.51C1163.17,-490.16 1193.38,-456 1193.38,-456 1193.38,-456 1299.33,-173 1337.71,-70.5"/>
<polygon fill="black" stroke="black" points="1340.97,-71.77 1341.2,-61.18 1334.41,-69.32 1340.97,-71.77"/>
</g>
<!-- 9 -->
<g id="node11" class="node">
<title>9</title>
<path fill="#fae8db" stroke="black" d="M1088.75,-326C1088.75,-326 970,-326 970,-326 964,-326 958,-320 958,-314 958,-314 958,-270 958,-270 958,-264 964,-258 970,-258 970,-258 1088.75,-258 1088.75,-258 1094.75,-258 1100.75,-264 1100.75,-270 1100.75,-270 1100.75,-314 1100.75,-314 1100.75,-320 1094.75,-326 1088.75,-326"/>
<text text-anchor="start" x="966" y="-308.7" font-family="Helvetica,sans-Serif" font-size="14.00">Health Score ≤ 49.17</text>
<text text-anchor="start" x="966" y="-293.7" font-family="Helvetica,sans-Serif" font-size="14.00">squared_error = 1.68</text>
<text text-anchor="start" x="977.25" y="-278.7" font-family="Helvetica,sans-Serif" font-size="14.00">samples = 59030</text>
<text text-anchor="start" x="992.25" y="-263.7" font-family="Helvetica,sans-Serif" font-size="14.00">value = 5.73</text>
</g>
<!-- 5&#45;&gt;9 -->
<g id="edge10" class="edge">
<title>5&#45;&gt;9</title>
<path fill="none" stroke="black" d="M1088.56,-387.7C1078.66,-371.85 1066.69,-352.71 1056.12,-335.79"/>
<polygon fill="black" stroke="black" points="1059.15,-334.04 1050.88,-327.41 1053.22,-337.75 1059.15,-334.04"/>
</g>
<!-- 10 -->
<g id="node16" class="node">
<title>10</title>
<path fill="#e58139" stroke="black" d="M1249.75,-59.5C1249.75,-59.5 1131,-59.5 1131,-59.5 1125,-59.5 1119,-53.5 1119,-47.5 1119,-47.5 1119,-18.5 1119,-18.5 1119,-12.5 1125,-6.5 1131,-6.5 1131,-6.5 1249.75,-6.5 1249.75,-6.5 1255.75,-6.5 1261.75,-12.5 1261.75,-18.5 1261.75,-18.5 1261.75,-47.5 1261.75,-47.5 1261.75,-53.5 1255.75,-59.5 1249.75,-59.5"/>
<text text-anchor="start" x="1127" y="-42.2" font-family="Helvetica,sans-Serif" font-size="14.00">squared_error = 1.99</text>
<text text-anchor="start" x="1142" y="-27.2" font-family="Helvetica,sans-Serif" font-size="14.00">samples = 6146</text>
<text text-anchor="start" x="1153.25" y="-12.2" font-family="Helvetica,sans-Serif" font-size="14.00">value = 6.87</text>
</g>
<!-- 5&#45;&gt;10 -->
<g id="edge15" class="edge">
<title>5&#45;&gt;10</title>
<path fill="none" stroke="black" d="M1116.35,-387.67C1131.43,-315.62 1166.97,-145.82 1182.68,-70.77"/>
<polygon fill="black" stroke="black" points="1186.09,-71.56 1184.71,-61.05 1179.24,-70.12 1186.09,-71.56"/>
</g>
<!-- 11 -->
<g id="node12" class="node">
<title>11</title>
<path fill="#fdf4ed" stroke="black" d="M942.38,-197C942.38,-197 794.38,-197 794.38,-197 788.38,-197 782.38,-191 782.38,-185 782.38,-185 782.38,-141 782.38,-141 782.38,-135 788.38,-129 794.38,-129 794.38,-129 942.38,-129 942.38,-129 948.38,-129 954.38,-135 954.38,-141 954.38,-141 954.38,-185 954.38,-185 954.38,-191 948.38,-197 942.38,-197"/>
<text text-anchor="start" x="790.38" y="-179.7" font-family="Helvetica,sans-Serif" font-size="14.00">Customer Feedback ≤ 0.5</text>
<text text-anchor="start" x="805" y="-164.7" font-family="Helvetica,sans-Serif" font-size="14.00">squared_error = 1.59</text>
<text text-anchor="start" x="816.25" y="-149.7" font-family="Helvetica,sans-Serif" font-size="14.00">samples = 52072</text>
<text text-anchor="start" x="831.25" y="-134.7" font-family="Helvetica,sans-Serif" font-size="14.00">value = 5.61</text>
</g>
<!-- 9&#45;&gt;11 -->
<g id="edge11" class="edge">
<title>9&#45;&gt;11</title>
<path fill="none" stroke="black" d="M987.07,-257.63C966.36,-241.29 941.25,-221.48 919.47,-204.3"/>
<polygon fill="black" stroke="black" points="921.88,-201.75 911.86,-198.3 917.54,-207.24 921.88,-201.75"/>
</g>
<!-- 12 -->
<g id="node15" class="node">
<title>12</title>
<path fill="#e99356" stroke="black" d="M1088.75,-59.5C1088.75,-59.5 970,-59.5 970,-59.5 964,-59.5 958,-53.5 958,-47.5 958,-47.5 958,-18.5 958,-18.5 958,-12.5 964,-6.5 970,-6.5 970,-6.5 1088.75,-6.5 1088.75,-6.5 1094.75,-6.5 1100.75,-12.5 1100.75,-18.5 1100.75,-18.5 1100.75,-47.5 1100.75,-47.5 1100.75,-53.5 1094.75,-59.5 1088.75,-59.5"/>
<text text-anchor="start" x="966" y="-42.2" font-family="Helvetica,sans-Serif" font-size="14.00">squared_error = 1.32</text>
<text text-anchor="start" x="981" y="-27.2" font-family="Helvetica,sans-Serif" font-size="14.00">samples = 6958</text>
<text text-anchor="start" x="992.25" y="-12.2" font-family="Helvetica,sans-Serif" font-size="14.00">value = 6.67</text>
</g>
<!-- 9&#45;&gt;12 -->
<g id="edge14" class="edge">
<title>9&#45;&gt;12</title>
<path fill="none" stroke="black" d="M1029.38,-257.67C1029.38,-209.63 1029.38,-121.25 1029.38,-71.17"/>
<polygon fill="black" stroke="black" points="1032.88,-71.41 1029.38,-61.42 1025.88,-71.42 1032.88,-71.41"/>
</g>
<!-- 15 -->
<g id="node13" class="node">
<title>15</title>
<path fill="#eca36f" stroke="black" d="M767,-59.5C767,-59.5 655.75,-59.5 655.75,-59.5 649.75,-59.5 643.75,-53.5 643.75,-47.5 643.75,-47.5 643.75,-18.5 643.75,-18.5 643.75,-12.5 649.75,-6.5 655.75,-6.5 655.75,-6.5 767,-6.5 767,-6.5 773,-6.5 779,-12.5 779,-18.5 779,-18.5 779,-47.5 779,-47.5 779,-53.5 773,-59.5 767,-59.5"/>
<text text-anchor="start" x="651.75" y="-42.2" font-family="Helvetica,sans-Serif" font-size="14.00">squared_error = 2.8</text>
<text text-anchor="start" x="663" y="-27.2" font-family="Helvetica,sans-Serif" font-size="14.00">samples = 6495</text>
<text text-anchor="start" x="678" y="-12.2" font-family="Helvetica,sans-Serif" font-size="14.00">value = 6.5</text>
</g>
<!-- 11&#45;&gt;15 -->
<g id="edge12" class="edge">
<title>11&#45;&gt;15</title>
<path fill="none" stroke="black" d="M827.53,-128.7C804.27,-109.74 775.23,-86.06 752.01,-67.13"/>
<polygon fill="black" stroke="black" points="754.23,-64.42 744.26,-60.81 749.8,-69.85 754.23,-64.42"/>
</g>
<!-- 16 -->
<g id="node14" class="node">
<title>16</title>
<path fill="#ffffff" stroke="black" d="M927.75,-59.5C927.75,-59.5 809,-59.5 809,-59.5 803,-59.5 797,-53.5 797,-47.5 797,-47.5 797,-18.5 797,-18.5 797,-12.5 803,-6.5 809,-6.5 809,-6.5 927.75,-6.5 927.75,-6.5 933.75,-6.5 939.75,-12.5 939.75,-18.5 939.75,-18.5 939.75,-47.5 939.75,-47.5 939.75,-53.5 933.75,-59.5 927.75,-59.5"/>
<text text-anchor="start" x="805" y="-42.2" font-family="Helvetica,sans-Serif" font-size="14.00">squared_error = 1.29</text>
<text text-anchor="start" x="816.25" y="-27.2" font-family="Helvetica,sans-Serif" font-size="14.00">samples = 45577</text>
<text text-anchor="start" x="831.25" y="-12.2" font-family="Helvetica,sans-Serif" font-size="14.00">value = 5.48</text>
</g>
<!-- 11&#45;&gt;16 -->
<g id="edge13" class="edge">
<title>11&#45;&gt;16</title>
<path fill="none" stroke="black" d="M868.38,-128.7C868.38,-111.08 868.38,-89.39 868.38,-71.22"/>
<polygon fill="black" stroke="black" points="871.88,-71.37 868.38,-61.37 864.88,-71.37 871.88,-71.37"/>
</g>
</g>
</svg>
